{"title":"The.Godfather.Part.II.1974.720p.BRRip.x264.ogg.mkv-anoXmous","uid":6722343,"size":1462552337,"categoryP":"video","categoryS":"hd___movies","magnet":"?xt=urn:btih:96408ef75c8756136b982d1c7901824798ea2ec2&amp;dn=The.Godfather.Part.II.1974.720p.BRRip.x264.ogg.mkv-anoXmous&amp;tr=udp%3A%2F%2Ftracker.openbittorrent.com%3A80&amp;tr=udp%3A%2F%2Fopen.demonii.com%3A1337&amp;tr=udp%3A%2F%2Ftracker.coppersurfer.tk%3A6969&amp;tr=udp%3A%2F%2Fexodus.desync.com%3A6969","seeders":0,"leechers":0,"uploader":"anoXmous","files":-1,"time":1317830205,"description":"The.Godfather.Part.II.1974.720p.BRRip.x264.ogg.mkv-anoXmous\n\nFormat                           : Matroska\nFormat version                   : Version 2\nFile size                        : 1.36 GiB\nDuration                         : 3h 22mn\nOverall bit rate mode            : Variable\nOverall bit rate                 : 965 Kbps\nWriting application              : mkvmerge v4.9.1 ('Ich will') built on Jul 11 2011 23:53:15\nWriting library                  : libebml v1.2.1 + libmatroska v1.1.1\n\nVideo\nID                               : 1\nFormat                           : AVC\nFormat/Info                      : Advanced Video Codec\nFormat profile                   : &lt;a class=&quot;__cf_email__&quot; href=&quot;/cdn-cgi/l/email-protection&quot; data-cfemail=&quot;541c3d333c1418607a65&quot;&gt;[email&amp;#160;protected]&lt;/a&gt;&lt;script data-cfhash='f9e31' type=&quot;text/javascript&quot;&gt;\n/* &lt;![CDATA[ */!function(){try{var t=&quot;currentScript&quot;in document?document.currentScript:function(){for(var t=document.getElementsByTagName(&quot;script&quot;),e=t.length;e--;)if(t[e].getAttribute(&quot;data-cfhash&quot;))return t[e]}();if(t&amp;&amp;t.previousSibling){var e,r,n,i,c=t.previousSibling,a=c.getAttribute(&quot;data-cfemail&quot;);if(a){for(e=&quot;&quot;,r=parseInt(a.substr(0,2),16),n=2;a.length-n;n+=2)i=parseInt(a.substr(n,2),16)^r,e+=String.fromCharCode(i);e=document.createTextNode(e),c.parentNode.replaceChild(e,c)}t.parentNode.removeChild(t);}}catch(u){}}()/* ]]&gt; */&lt;/script&gt;\nFormat settings, CABAC           : Yes\nFormat settings, ReFrames        : 4 frames\nCodec ID                         : V_MPEG4/ISO/AVC\nDuration                         : 3h 22mn\nBit rate                         : 906 Kbps\nWidth                            : 1 280 pixels\nHeight                           : 720 pixels\nDisplay aspect ratio             : 16:9\nFrame rate                       : 23.976 fps\nColor space                      : YUV\nChroma subsampling               : 4:2:0\nBit depth                        : 8 bits\nScan type                        : Progressive\nBits/(Pixel*Frame)               : 0.041\nStream size                      : 1.24 GiB (91%)\nWriting library                  : x264 core 116 r2074 2641b9e\n\n\nAudio\nID                               : 2\nFormat                           : Vorbis\nFormat settings, Floor           : 1\nCodec ID                         : A_VORBIS\nDuration                         : 3h 22mn\nBit rate mode                    : Variable\nBit rate                         : 64.0 Kbps\nChannel(s)                       : 2 channels\nSampling rate                    : 48.0 KHz\nCompression mode                 : Lossy\nStream size                      : 92.5 MiB (7%)\nWriting library                  : aoTuV 20110424 (UTC 2011-04-24)\nLanguage                         : English\n\nText #1\nID                               : 3\nFormat                           : UTF-8\nCodec ID                         : S_TEXT/UTF8\nCodec ID/Info                    : UTF-8 Plain Text\nLanguage                         : English\n\nText #2\nID                               : 4\nFormat                           : UTF-8\nCodec ID                         : S_TEXT/UTF8\nCodec ID/Info                    : UTF-8 Plain Text\nLanguage                         : Swedish\n &lt;a href=&quot;\nhttp://www.imdb.com/title/tt0071562/&quot; rel=&quot;nofollow&quot; target=&quot;_NEW&quot;&gt;\nhttp://www.imdb.com/title/tt0071562/&lt;/a&gt;\n\nScreens: http://www.imagebam.com/image/5dd654152567236","torrent":{"xt":"urn:btih:96408ef75c8756136b982d1c7901824798ea2ec2","amp;dn":"The.Godfather.Part.II.1974.720p.BRRip.x264.ogg.mkv-anoXmous","amp;tr":["udp%3A%2F%2Ftracker.openbittorrent.com%3A80","udp%3A%2F%2Fopen.demonii.com%3A1337","udp%3A%2F%2Ftracker.coppersurfer.tk%3A6969","udp%3A%2F%2Fexodus.desync.com%3A6969"],"infoHash":"96408ef75c8756136b982d1c7901824798ea2ec2","infoHashBuffer":{"type":"Buffer","data":[150,64,142,247,92,135,86,19,107,152,45,28,121,1,130,71,152,234,46,194]},"announce":[],"urlList":[]}}